<svg width="56" height="57" viewBox="0 0 56 57" fill="none" xmlns="http://www.w3.org/2000/svg">
<g clip-path="url(#clip0_20625_9)">
<path d="M27.884 56.8555C27.3007 56.8555 26.7173 56.7388 26.1923 56.3888L6.88401 45.6555C5.89234 45.1305 5.25068 44.1388 5.07568 42.9721L1.57568 12.8721C1.40068 11.2388 2.33401 9.72214 3.85068 9.19713L26.7173 1.03047C27.1257 0.913802 27.4757 0.855469 27.884 0.855469C28.2923 0.855469 28.7007 0.913802 29.0507 1.03047L51.859 9.1388C53.3757 9.6638 54.3673 11.2388 54.134 12.8138L50.634 42.9721C50.5173 44.0805 49.8173 45.0721 48.8257 45.6555L29.5173 56.3888C28.9923 56.6805 28.409 56.8555 27.8257 56.8555H27.884Z" fill="#F8F9FA"/>
<path d="M27.8708 4.35547L5.0625 12.4638L8.5625 42.6221L27.8708 53.3555L47.1792 42.6221L50.6792 12.4638L27.8708 4.35547Z" fill="#DD0031"/>
<path d="M27.8672 4.35547V9.78047V34.5721V53.3555L47.1755 42.6221L50.6755 12.4638L27.8672 4.35547Z" fill="#C3002F"/>
<path d="M27.874 9.78516L13.6406 41.7518H18.949L21.8073 34.5768H33.8823L36.7406 41.7518H42.049L27.874 9.78516ZM32.0156 30.2018H23.674L27.8156 20.1685L31.9573 30.2018H32.0156Z" fill="#F8F9FA"/>
</g>
<defs>
<clipPath id="clip0_20625_9">
<rect width="56" height="56" fill="white" transform="translate(0 0.855469)"/>
</clipPath>
</defs>
</svg>
