<svg width="56" height="57" viewBox="0 0 56 57" fill="none" xmlns="http://www.w3.org/2000/svg">
<g clip-path="url(#clip0_20625_253)">
<path d="M52.0673 32.8221C52.0148 32.7755 51.9623 32.7288 51.9098 32.6821C52.1315 31.3171 52.2365 30.0746 52.2365 28.873C52.2365 27.5488 52.0965 26.2713 51.9098 25.093C52.9598 24.4163 53.3565 23.4188 53.4907 23.0688L53.5548 22.923C53.7998 22.363 54.4882 20.8055 53.8232 19.038C53.6248 18.2155 53.234 17.6321 52.9948 17.3055C52.7265 16.693 52.4115 16.1855 52.149 15.7596C51.9973 15.5088 51.8515 15.2755 51.7465 15.0538C51.4782 14.5171 51.1865 14.033 50.9357 13.6071C50.7257 13.2513 50.5215 12.913 50.3932 12.6621C49.6523 11.1163 48.5323 10.0546 47.0448 9.4888C46.4032 9.24964 45.7498 9.12714 45.114 9.12714C44.6065 9.12714 44.1048 9.20297 43.5857 9.3663C43.4107 9.42463 43.2298 9.48297 43.0548 9.5413C41.1123 7.97214 38.9948 6.73547 36.7373 5.84297C36.6907 5.6038 36.6323 5.36464 36.5682 5.10797C36.1773 3.6263 35.3082 2.4538 34.1123 1.80047C33.3307 1.3513 32.2632 0.855469 30.8223 0.855469C29.8248 0.867135 28.8273 0.878802 27.824 0.878802C26.8207 0.878802 25.829 0.872969 24.779 0.855469C23.8982 0.855469 23.2332 1.0713 22.8248 1.19964L22.749 1.22297C20.7307 1.92297 19.354 3.50964 18.9748 5.6038C18.9632 5.6738 18.9515 5.7438 18.9457 5.8138C16.6765 6.71797 14.5532 7.95464 12.6048 9.5063C12.424 9.44213 12.2432 9.3838 12.0623 9.3313C11.5723 9.18547 11.059 9.10964 10.534 9.10964C8.72566 9.10964 6.96983 10.0196 5.92566 11.5363C5.6865 11.8921 5.52316 12.2188 5.40066 12.458C5.36566 12.528 5.3365 12.5921 5.32483 12.6155L5.28983 12.668C4.9165 13.2221 4.61316 13.7705 4.34483 14.2546C4.21066 14.4938 4.08233 14.7271 3.9365 14.9721C3.72066 15.3396 3.50483 15.713 3.29483 16.0863C3.009 16.588 2.72316 17.0955 2.41983 17.5796L2.38483 17.6438C1.87733 18.5013 1.68483 19.4113 1.60316 20.0646C1.41066 21.8088 2.134 23.553 3.59233 24.848C3.65066 24.9005 3.709 24.953 3.76733 25.0055C3.569 26.2421 3.42316 27.4905 3.42316 28.803C3.42316 30.1155 3.56316 31.4046 3.74983 32.583C2.69983 33.2596 2.30316 34.2571 2.169 34.6071L2.10483 34.753C1.85983 35.313 1.1715 36.8705 1.8365 38.638C2.03483 39.4605 2.42566 40.0438 2.66483 40.3705C2.93316 40.983 3.24816 41.4905 3.50483 41.9163C3.6565 42.1671 3.80233 42.4005 3.90733 42.6221C4.17566 43.1588 4.46733 43.643 4.71816 44.0746C4.92816 44.4305 5.13233 44.7688 5.26066 45.0196C6.0015 46.5655 7.1215 47.633 8.609 48.193C9.25066 48.4321 9.904 48.5546 10.5398 48.5546C11.0473 48.5546 11.549 48.4788 12.0682 48.3155C12.2432 48.2571 12.424 48.1988 12.599 48.1405C14.5532 49.7271 16.6765 50.9696 18.9398 51.8505C18.9748 52.0313 19.0098 52.2121 19.0448 52.3988C19.3482 53.9388 20.2523 55.2163 21.5357 55.9163C22.3173 56.3596 23.3848 56.8555 24.8198 56.8555C25.8173 56.8438 26.8148 56.8321 27.8182 56.8321C28.8215 56.8321 29.8132 56.838 30.8165 56.8555H30.869C31.7498 56.8555 32.4498 56.6338 32.8173 56.5171C34.789 55.8871 36.1715 54.388 36.6148 52.3871C36.6498 52.218 36.6848 52.0488 36.7198 51.8796C39.0123 50.9871 41.1182 49.7563 43.084 48.1638C43.2357 48.2163 43.399 48.2688 43.5623 48.3155C43.9415 48.4263 44.5307 48.578 45.2248 48.578C45.989 48.578 46.7123 48.403 47.3948 48.053L47.424 48.0413C48.649 47.5455 49.5007 46.7813 49.9673 45.7605C50.4457 45.0488 50.8307 44.3371 51.1748 43.6955C51.3673 43.3455 51.554 42.9896 51.7698 42.628C51.9448 42.3305 52.1198 42.0271 52.289 41.7296C52.604 41.1813 52.919 40.6388 53.2457 40.1021C53.6773 39.408 53.9457 38.603 54.0682 37.6113C54.2607 35.8671 53.5373 34.123 52.079 32.828L52.0673 32.8221Z" fill="#F8F9FA"/>
<path d="M21.9818 49.1847C18.7327 48.2572 15.8743 46.548 13.3777 44.1564C12.596 44.4364 11.7968 44.7164 10.986 44.9847C10.6068 45.1014 10.2335 45.0605 9.83684 44.9089C9.14268 44.6464 8.71684 44.1272 8.41351 43.4914C7.99351 42.6514 7.45684 41.8872 7.03684 41.0472C6.65768 40.2655 6.10934 39.5889 5.78851 38.778C5.63101 38.3814 5.21101 38.113 5.21101 37.6114C4.83184 36.993 5.19934 36.4447 5.41518 35.9022C5.47351 35.7564 5.54351 35.5639 5.67768 35.5055C6.20268 35.2722 6.45934 34.7414 6.89684 34.4147C7.10101 34.2689 7.31684 34.1055 7.55018 33.9305C7.21768 32.233 6.92601 30.5414 6.92601 28.803C6.92601 27.0647 7.22934 25.4139 7.55018 23.763C6.98434 23.2322 6.45934 22.7189 5.91101 22.2289C5.34518 21.7272 5.01268 21.1089 5.08268 20.4614C5.12351 20.1055 5.22851 19.7264 5.40351 19.4289C5.94018 18.5597 6.43601 17.6439 6.95518 16.763C7.37518 16.0572 7.73684 15.3164 8.20351 14.628C8.44851 14.2722 8.59434 13.8639 8.83934 13.4905C9.31768 12.7964 10.2743 12.458 11.0618 12.6972C11.756 12.9014 12.4093 13.2105 13.121 13.3447C13.191 13.3622 13.2493 13.4614 13.3252 13.5372C15.8335 11.163 18.6918 9.47135 21.976 8.47969C22.1043 8.08302 22.1335 7.65135 22.2968 7.24302C22.4135 6.93385 22.3843 6.54885 22.4427 6.21052C22.6002 5.32385 23.1368 4.81052 23.9068 4.54219C24.181 4.45469 24.461 4.36719 24.7935 4.36719C26.8235 4.39635 28.8535 4.39635 30.8893 4.36719C31.4668 4.36719 31.9627 4.60052 32.4293 4.86885C32.8493 5.09052 33.0827 5.56302 33.1993 6.00635C33.4035 6.81719 33.5202 7.64552 33.6777 8.49719C36.9443 9.44219 39.8027 11.1339 42.2993 13.5255C43.081 13.2455 43.8802 12.9655 44.691 12.6972C45.0702 12.5805 45.4435 12.6214 45.8402 12.773C46.5343 13.0355 46.9602 13.5547 47.2635 14.1905C47.6835 15.0305 48.2202 15.7947 48.6402 16.6347C49.0193 17.4164 49.5677 18.093 49.8885 18.9039C50.046 19.3005 50.466 19.5689 50.466 20.0705C50.8452 20.6889 50.4777 21.2372 50.2618 21.7797C50.2035 21.9255 50.1335 22.118 49.9993 22.1764C49.4743 22.4097 49.2177 22.9405 48.7802 23.2672C48.576 23.413 48.3602 23.5764 48.1268 23.7514C48.4593 25.4489 48.751 27.1405 48.751 28.8789C48.751 30.6172 48.4885 32.268 48.1268 33.9189C48.6927 34.4497 49.2177 34.963 49.766 35.453C50.3318 35.9547 50.6643 36.573 50.5943 37.2205C50.5535 37.5764 50.466 37.9555 50.2735 38.253C49.7485 39.1105 49.2585 39.9914 48.751 40.8605C48.1152 41.9339 47.5902 43.1005 46.8493 44.1155C46.721 44.6755 46.196 44.7222 45.8168 44.9264C45.4085 45.148 45.006 45.0897 44.5568 44.9555C43.8918 44.763 43.2502 44.4247 42.556 44.3372C42.486 44.3197 42.4277 44.2205 42.3518 44.1447C39.8435 46.548 36.9968 48.2572 33.6777 49.2139C33.5202 50.0072 33.3743 50.8355 33.1993 51.6464C33.0243 52.4397 32.5052 52.9414 31.7643 53.1805C31.4902 53.268 31.1985 53.3555 30.8777 53.3555C28.8477 53.3264 26.8177 53.3264 24.7818 53.3555C24.2043 53.3555 23.7085 53.1222 23.2418 52.8539C22.8218 52.6322 22.5768 52.1597 22.4893 51.7164C22.3318 50.8472 22.1685 50.0364 21.9935 49.1789L21.9818 49.1847ZM22.9268 36.1997C23.2185 36.0364 23.551 35.9372 23.5627 35.5814C23.5918 35.0505 23.6618 34.508 23.551 34.0064C23.3468 33.1489 22.9852 32.3264 22.7693 31.4689C22.6235 30.9264 22.3027 30.4072 22.3202 29.818C21.8535 28.6514 21.5677 27.4322 21.171 26.248C20.8502 25.2739 20.6168 24.2705 20.2727 23.3139C20.086 22.783 20.0393 22.1939 19.6952 21.7214C19.666 21.6747 19.6543 21.6455 19.6543 21.6455C19.2635 21.383 18.8552 21.4705 18.5052 21.4705C18.301 21.663 18.126 21.8264 17.9685 21.9722C17.9568 22.4447 17.6185 22.8122 17.6768 23.2672C17.1693 24.4164 16.9535 25.653 16.5277 26.8372C16.3118 27.4439 16.1777 28.0622 16.0027 28.6805C15.8452 29.2989 15.4952 29.8589 15.4952 30.5239C14.941 31.778 14.6668 33.1197 14.2643 34.4322C14.1652 34.7589 14.1068 35.068 14.3052 35.3772C14.3635 35.4647 14.3343 35.5989 14.3343 35.5814C14.5677 35.8322 14.7427 36.0072 14.8885 36.188H15.7577C15.9618 35.9255 16.166 35.6747 16.3527 35.4239C16.3118 34.5839 16.481 34.0239 16.8602 33.1255H21.1243C21.241 33.598 21.2993 34.053 21.4568 34.4789C21.5268 34.6539 21.6027 34.8347 21.5735 35.0097C21.5327 35.5522 21.7018 35.9839 22.3143 36.188C22.4602 36.2055 22.676 36.2055 22.921 36.2055L22.9268 36.1997ZM26.3218 36.1997C26.7127 36.1705 27.1618 36.2872 27.4827 35.9664C27.5993 35.8205 27.6985 35.6689 27.8443 35.4647V30.8972C28.906 30.8972 29.9502 30.8505 30.9768 30.9147C31.601 30.9439 32.1085 30.7514 32.6043 30.4422C32.8377 30.2964 33.0418 30.0747 33.2402 29.8647C33.7768 29.3339 34.0393 28.6864 34.051 27.9164V24.3055C34.051 24.1305 34.0102 23.938 33.9635 23.763C33.806 23.1272 33.4677 22.6547 33.0185 22.2464C32.4935 21.7622 31.8868 21.4647 31.1635 21.4647H26.2868C26.1293 21.6397 25.966 21.8205 25.7793 21.9955V35.6922C25.966 35.8555 26.141 36.0305 26.316 36.2055L26.3218 36.1997ZM36.7693 36.1997H39.7852C39.9602 36.0247 40.1352 35.8439 40.3102 35.6864V34.7997C40.0943 34.3855 39.756 34.1347 39.3243 34.0939V23.6289C39.6452 23.4655 39.9193 23.3197 40.2402 23.1447C40.281 22.7597 40.3102 22.363 40.3393 22.083C40.106 21.8205 39.9485 21.628 39.8143 21.4764H36.8568C36.6118 21.698 36.4368 21.8614 36.221 22.0655C36.2618 22.4214 36.3202 22.818 36.3668 23.1564C36.7168 23.3314 36.991 23.483 37.236 23.6114V34.1055C37.0902 34.1347 36.9327 34.1055 36.8743 34.1814C36.6702 34.3855 36.3202 34.4439 36.2502 34.788V35.6747C36.4252 35.8497 36.6002 36.0305 36.7752 36.2055L36.7693 36.1997Z" fill="#66C8FF"/>
<path d="M20.3585 30.8618C19.501 30.8909 18.6027 30.9084 17.7044 30.9376C17.6752 30.9376 17.6344 30.9959 17.5469 31.0718C17.5585 30.1559 18.0719 29.4209 18.1244 28.5809C18.5619 27.8459 18.6027 26.9768 18.8944 26.1484C18.9819 26.2359 19.1102 26.3234 19.1102 26.3993C19.1219 27.0351 19.4894 27.5776 19.606 28.1843C19.6935 28.5984 19.9269 28.9951 19.9852 29.4093C20.0435 29.9401 20.3935 30.3368 20.3644 30.8676L20.3585 30.8618Z" fill="#66C8FF"/>
<path d="M32.036 28.0034C31.9369 28.1667 31.8494 28.3301 31.7327 28.4759C31.5285 28.7092 31.266 28.8434 30.9335 28.8317C29.9185 28.8142 28.9035 28.8317 27.8594 28.8317V23.5234C28.921 23.5234 30.006 23.5059 31.0794 23.5234C31.5869 23.5409 32.0244 24.0717 32.036 24.6317V28.0092V28.0034Z" fill="#66C8FF"/>
</g>
<defs>
<clipPath id="clip0_20625_253">
<rect width="56" height="56" fill="white" transform="translate(0 0.855469)"/>
</clipPath>
</defs>
</svg>
