<svg width="56" height="57" viewBox="0 0 56 57" fill="none" xmlns="http://www.w3.org/2000/svg">
<g clip-path="url(#clip0_20625_452)">
<path d="M28.1417 56.8555C27.85 56.8555 27.5 56.8555 27.2083 56.7388L9.59167 51.8388C8.19167 51.4305 7.2 50.2055 7.025 48.8055L3.11667 4.70547C3.05833 3.7138 3.35 2.78047 3.99167 2.02214C4.63333 1.32214 5.56667 0.855469 6.55833 0.855469H49.7833C50.775 0.855469 51.7083 1.2638 52.35 2.02214C52.9917 2.72214 53.3417 3.7138 53.225 4.70547L49.3167 48.8055C49.2 50.2638 48.15 51.4888 46.75 51.8388L29.075 56.7388C28.7833 56.7971 28.4333 56.8555 28.1417 56.8555Z" fill="#F8F9FA"/>
<path d="M10.4708 48.4555L6.5625 4.35547H49.7875L45.8792 48.4555L28.2042 53.3555L10.5875 48.4555H10.4708Z" fill="#264DE4"/>
<path d="M42.4323 45.6599L45.8156 7.97656H28.1406V49.6266L42.4323 45.6599Z" fill="#2965F1"/>
<path d="M15.5307 24.2987L15.9974 29.7237H28.0724V24.2987H15.4724H15.5307ZM15.0641 18.757H28.1307V13.332H14.5391L15.0057 18.757H15.0641ZM28.1307 38.357L22.1224 36.7237L21.7141 32.407H16.2891L17.0474 40.9237L28.1307 44.0154V38.357Z" fill="#EBEBEB"/>
<path d="M28.1406 24.3102V29.7352H34.7906L34.149 36.7352L28.1406 38.3685V43.9685L39.224 40.8768V39.9435C39.2823 39.9435 40.5656 25.7102 40.5656 25.7102L40.6823 24.2518L41.674 13.2852H28.1406V18.7102H35.7823L35.3156 24.2518H28.199L28.1406 24.3102Z" fill="#F8F9FA"/>
</g>
<defs>
<clipPath id="clip0_20625_452">
<rect width="56" height="56" fill="white" transform="translate(0 0.855469)"/>
</clipPath>
</defs>
</svg>
