<svg width="56" height="57" viewBox="0 0 56 57" fill="none" xmlns="http://www.w3.org/2000/svg">
<g clip-path="url(#clip0_20625_644)">
<path d="M28.2709 56.733C27.1043 56.733 25.9434 56.4413 24.9518 55.8581L9.23676 47.0682L9.00343 46.9515C8.5951 46.7182 8.18676 46.4849 7.8951 46.1349C7.13676 45.26 6.8451 44.1576 7.07843 43.0494L13.0751 4.75756C13.3668 2.8386 14.8776 1.26376 16.8026 0.913796H16.8609C17.0943 0.913796 17.3859 0.855469 17.6193 0.855469C18.3193 0.855469 19.0193 1.03045 19.5968 1.32209C20.4718 1.73038 21.2243 2.4303 21.6909 3.29938L24.8351 9.2371C25.7101 8.30386 26.9293 7.72642 28.2126 7.72642C29.4959 7.72642 28.2126 7.72642 28.2709 7.72642C29.9568 7.72642 31.4734 8.71798 32.2901 10.1703L34.6176 14.5915L37.0034 12.206C37.6451 11.5644 38.4034 11.1561 39.2143 10.9811C39.5643 10.9228 39.9143 10.8644 40.2643 10.8644C40.6143 10.8644 40.3809 10.8644 40.4393 10.8644C40.8476 10.8644 41.3143 10.9811 41.7226 11.0977C43.3501 11.6227 44.5751 13.0167 44.8668 14.7082L49.4634 43.2885C49.6968 44.5717 49.1718 45.8491 48.1218 46.6657C48.0634 46.6657 47.9468 46.7823 47.8884 46.8407C47.8301 46.8407 47.7718 46.899 47.6551 46.9573L31.4734 55.9806C30.4818 56.5638 29.3209 56.8555 28.1543 56.8555L28.2709 56.7388V56.733Z" fill="#F8F9FA"/>
<path d="M10.5625 43.8598L16.5592 5.32882C16.6175 4.86221 17.0258 4.45392 17.4925 4.39559C17.9592 4.33726 18.4258 4.57057 18.6592 4.97886L24.8892 16.5627L27.3917 11.8498C27.5667 11.4998 27.975 11.2665 28.3833 11.2665C28.7917 11.2665 29.2 11.4998 29.375 11.8498L46.1983 43.8073H10.6208L10.5625 43.8656V43.8598Z" fill="#FFA000"/>
<path d="M31.3467 28.8384L24.8833 16.5547L10.5625 43.7994L31.3467 28.7801V28.8384Z" fill="#F57C00"/>
<path d="M46.1403 43.8635L41.5436 15.3415C41.4853 14.9332 41.1936 14.5832 40.7853 14.4666C40.377 14.3499 39.9686 14.4666 39.677 14.7582L10.6328 43.8635L26.6978 52.8867C27.6895 53.47 28.9086 53.47 29.9586 52.8867L46.1986 43.8635H46.1403Z" fill="#FFCA28"/>
<path d="M41.477 15.342C41.4186 14.9337 41.127 14.5837 40.7186 14.467C40.3103 14.3504 39.902 14.467 39.6103 14.7587L33.847 20.5214L29.3086 11.9065C29.1336 11.5565 28.7253 11.3232 28.317 11.3232C27.9086 11.3232 27.5003 11.5565 27.3253 11.9065L24.8228 16.6193L18.5986 5.04136C18.3653 4.63307 17.8986 4.39976 17.432 4.45809C16.9653 4.51642 16.6153 4.92471 16.4986 5.39132L10.5078 43.9223L10.6828 44.039L39.6161 15.1086C39.9078 14.817 40.3745 14.7004 40.7245 14.817C41.0745 14.9337 41.4245 15.2836 41.4828 15.6919L46.0795 43.9806L41.4828 15.4003V15.342H41.477ZM10.6245 43.8057L16.5628 5.62463C16.6211 5.15802 17.0295 4.74972 17.4961 4.6914C17.9628 4.63307 18.4295 4.86638 18.6628 5.27467L24.8928 16.8585L27.3953 12.1456C27.5703 11.7957 27.9786 11.5623 28.387 11.5623C28.7953 11.5623 29.2036 11.7957 29.3786 12.1456L33.8003 20.5856L10.6245 43.8057Z" fill="white" fill-opacity="0.4"/>
<path opacity="0.2" d="M29.8883 52.5896C28.8967 53.1729 27.6775 53.1729 26.6275 52.5896L10.5625 43.5664V43.7997L26.6275 52.8229C27.6192 53.4062 28.8383 53.4062 29.8883 52.8229L46.1283 43.7997V43.5664L29.8883 52.5896Z" fill="#A52714"/>
<path d="M41.4733 15.342C41.415 14.9337 41.1233 14.5837 40.715 14.467C40.3067 14.3504 39.8983 14.467 39.6067 14.7587L33.8433 20.5214L29.305 11.9065C29.13 11.5565 28.7217 11.3232 28.3133 11.3232C27.905 11.3232 27.4967 11.5565 27.3217 11.9065L24.8775 16.6193L18.6533 5.04136C18.42 4.63307 17.9533 4.39976 17.4867 4.45809C17.02 4.51642 16.67 4.92471 16.5533 5.39132L10.5625 43.864L26.5692 52.8872C27.5608 53.4705 28.78 53.4705 29.83 52.8872L46.0117 43.864L41.415 15.342H41.4733Z" fill="url(#paint0_linear_20625_644)"/>
</g>
<defs>
<linearGradient id="paint0_linear_20625_644" x1="8.2175" y1="15.062" x2="52.133" y2="33.2622" gradientUnits="userSpaceOnUse">
<stop stop-color="white" stop-opacity="0.1"/>
<stop offset="0.1" stop-color="white" stop-opacity="0"/>
<stop offset="0.6" stop-color="white" stop-opacity="0"/>
<stop offset="1" stop-color="white" stop-opacity="0"/>
</linearGradient>
<clipPath id="clip0_20625_644">
<rect width="56" height="56" fill="white" transform="translate(0 0.855469)"/>
</clipPath>
</defs>
</svg>
