<svg width="56" height="57" viewBox="0 0 56 57" fill="none" xmlns="http://www.w3.org/2000/svg">
<g clip-path="url(#clip0_20625_182)">
<path d="M28.0292 56.7971C26.2792 56.7971 24.5933 56.0971 23.31 54.8721L1.925 33.4871C0.641667 32.2038 0 30.5763 0 28.768C0 26.9596 0.7 25.3321 1.925 24.0488L18.7658 7.20797L23.1933 2.78047C24.4183 1.49714 26.1042 0.855469 27.9125 0.855469C29.7208 0.855469 31.3483 1.55547 32.6317 2.8388L54.0167 24.2238C55.3 25.5071 55.9417 27.1346 55.9417 28.943C55.9417 30.7513 55.2417 32.3788 54.0167 33.6621L32.7483 54.9305C31.465 56.2138 29.8375 56.8555 28.0292 56.8555V56.7971Z" fill="#F8F9FA"/>
<path d="M51.482 26.6709L30.097 5.28594C28.872 4.06094 26.8945 4.06094 25.6111 5.28594L21.1836 9.71344L26.8361 15.3659C28.1195 14.8993 29.6303 15.2493 30.6803 16.2409C31.7303 17.2909 32.022 18.8076 31.5553 20.1434L36.9745 25.5626C38.3161 25.0959 39.827 25.3876 40.877 26.4376C42.3353 27.8959 42.3353 30.2818 40.877 31.7401C39.4186 33.1984 37.0328 33.1984 35.5745 31.7401C34.4661 30.6318 34.1745 28.9984 34.7578 27.6626L29.6886 22.5934V35.9401C30.0386 36.1151 30.3886 36.3484 30.6803 36.6401C32.1386 38.0984 32.1386 40.4843 30.6803 41.9426C29.222 43.4009 26.8361 43.4009 25.3778 41.9426C23.9195 40.4843 23.9195 38.0984 25.3778 36.6401C25.7278 36.2901 26.1361 35.9984 26.6028 35.8234V22.3601C26.1361 22.1851 25.7278 21.8934 25.3778 21.5434C24.2695 20.4351 23.9778 18.8018 24.5611 17.4659L19.0253 11.9301L4.39531 26.5543C3.17031 27.7793 3.17031 29.7568 4.39531 31.0401L25.7803 52.4251C27.0053 53.6501 28.9828 53.6501 30.2661 52.4251L51.5345 31.1568C52.7595 29.9318 52.7595 27.9543 51.5345 26.6709H51.4761H51.482Z" fill="#F05133"/>
</g>
<defs>
<clipPath id="clip0_20625_182">
<rect width="56" height="56" fill="white" transform="translate(0 0.855469)"/>
</clipPath>
</defs>
</svg>
