<svg width="56" height="57" viewBox="0 0 56 57" fill="none" xmlns="http://www.w3.org/2000/svg">
<g clip-path="url(#clip0_20625_295)">
<path d="M28.1417 56.8555C27.85 56.8555 27.5 56.8555 27.2083 56.7388L9.59167 51.8388C8.19167 51.4305 7.14167 50.2055 7.025 48.8055L3.11667 4.70547C3.05833 3.7138 3.35 2.78047 3.99167 2.02214C4.63333 1.2638 5.56667 0.855469 6.55833 0.855469H49.7833C50.775 0.855469 51.7084 1.2638 52.35 2.02214C52.9917 2.78047 53.3417 3.7138 53.225 4.70547L49.3167 48.8055C49.2 50.2638 48.15 51.4888 46.75 51.8388L29.0167 56.7388C28.725 56.7971 28.375 56.8555 28.0833 56.8555H28.1417Z" fill="#F8F9FA"/>
<path d="M10.5255 48.4555L6.61719 4.35547H49.8422L45.9339 48.4555L28.2005 53.3555" fill="#E44D26"/>
<path d="M28.2031 49.6187V7.96875H45.8781L42.4948 45.5937" fill="#F16529"/>
<path d="M14.6172 13.3984H28.2089V18.8234H20.5672L21.0922 24.3651H28.2672V29.7318H16.1922M16.3672 32.4151H21.7922L22.2005 36.7318L28.2672 38.3651V44.0234L17.1839 40.9318" fill="#EBEBEB"/>
<path d="M41.7323 13.3984H28.199V18.8234H41.2656M40.7406 24.3068H28.199V29.7318H34.849L34.2073 36.7318L28.1406 38.3651V43.9651L39.224 40.8734" fill="#F8F9FA"/>
</g>
<defs>
<clipPath id="clip0_20625_295">
<rect width="56" height="56" fill="white" transform="translate(0 0.855469)"/>
</clipPath>
</defs>
</svg>
