<svg width="56" height="57" viewBox="0 0 56 57" fill="none" xmlns="http://www.w3.org/2000/svg">
<g clip-path="url(#clip0_20625_503)">
<path d="M52.5 0.855469H3.5C1.567 0.855469 0 2.42247 0 4.35547V53.3555C0 55.2885 1.567 56.8555 3.5 56.8555H52.5C54.433 56.8555 56 55.2885 56 53.3555V4.35547C56 2.42247 54.433 0.855469 52.5 0.855469Z" fill="#F8F9FA"/>
<path d="M52.5 4.35547H3.5V53.3555H52.5V4.35547Z" fill="#F7DF1E"/>
<path d="M36.3911 42.624C37.3828 44.2573 38.6661 45.424 40.9411 45.424C43.2161 45.424 44.0911 44.4906 44.0911 43.149C44.0911 41.8073 42.8661 40.9906 40.7661 40.1156L39.5995 39.649C36.2745 38.249 34.0578 36.4406 34.0578 32.7073C34.0578 28.974 36.6828 26.6406 40.8245 26.6406C44.9661 26.6406 45.8411 27.6323 47.3578 30.3156L43.7995 32.5906C42.9828 31.1906 42.1661 30.6073 40.8245 30.6073C39.4828 30.6073 38.6078 31.4823 38.6078 32.5906C38.6078 33.699 39.4828 34.5156 41.4661 35.3906L42.6328 35.8573C46.5411 37.549 48.7578 39.2406 48.7578 43.0906C48.7578 46.9406 45.4911 49.5073 41.1161 49.5073C36.7411 49.5073 34.0578 47.4656 32.7161 44.7823L36.4495 42.624H36.3911ZM20.1161 43.0323C20.8161 44.3156 21.5161 45.424 23.0911 45.424C24.6661 45.424 25.5411 44.8406 25.5411 42.5073V26.874H30.1495V42.5656C30.1495 47.349 27.3495 49.5073 23.2661 49.5073C19.1828 49.5073 17.4328 47.5823 16.3828 45.3073L20.1161 43.0323Z" fill="#F8F9FA"/>
</g>
<defs>
<clipPath id="clip0_20625_503">
<rect width="56" height="56" fill="white" transform="translate(0 0.855469)"/>
</clipPath>
</defs>
</svg>
