<svg width="56" height="57" viewBox="0 0 56 57" fill="none" xmlns="http://www.w3.org/2000/svg">
<g clip-path="url(#clip0_20625_678)">
<path d="M28 56.8555C12.5417 56.8555 0 44.3138 0 28.8555C0 13.3971 12.5417 0.855469 28 0.855469C43.4583 0.855469 56 13.3971 56 28.8555C56 44.3138 43.4583 56.8555 28 56.8555Z" fill="#F8F9FA"/>
<path d="M28 53.3555C41.531 53.3555 52.5 42.3864 52.5 28.8555C52.5 15.3245 41.531 4.35547 28 4.35547C14.469 4.35547 3.5 15.3245 3.5 28.8555C3.5 42.3864 14.469 53.3555 28 53.3555Z" fill="#757575"/>
<path d="M10.8516 11.7031H45.1516V46.0031H10.8516V11.7031Z" fill="#BDBDBD"/>
<path d="M45.1516 11.7031L28.0016 46.0031L10.8516 11.7031H45.1516Z" fill="#F8F9FA"/>
</g>
<defs>
<clipPath id="clip0_20625_678">
<rect width="56" height="56" fill="white" transform="translate(0 0.855469)"/>
</clipPath>
</defs>
</svg>
