<svg width="56" height="57" viewBox="0 0 56 57" fill="none" xmlns="http://www.w3.org/2000/svg">
<path fill-rule="evenodd" clip-rule="evenodd" d="M47.0837 27.4645C45.9756 27.4645 44.8733 26.9395 44.2318 26.0062L39.922 19.9453C39.1638 18.8953 39.0472 17.5011 39.6304 16.3344C39.8636 15.8678 40.1552 15.5178 40.5635 15.2261C39.6304 14.0594 38.2365 13.3594 36.6619 13.3594C35.0872 13.3594 32.527 14.8178 31.8854 16.9119C31.5938 17.8453 31.0106 18.6036 30.1942 19.012C29.6693 19.3036 29.1444 19.4203 28.5612 19.4203C27.978 19.4203 27.8613 19.4203 27.5114 19.2453C26.52 18.9536 25.4702 18.7203 24.4263 18.6036C23.3765 18.487 22.4434 17.962 21.866 17.1453C21.2887 16.3286 21.1079 15.2203 21.3412 14.2344C21.5161 13.4761 21.8077 12.7761 22.0993 12.0819C22.9158 10.2152 24.0239 8.52937 25.4761 7.07103C26.9341 5.61268 28.6778 4.45184 30.5441 3.6935C32.4686 2.87683 34.5623 2.41016 36.7202 2.41016C38.878 2.41016 40.9717 2.81849 42.8963 3.63517C44.8209 4.45184 46.5063 5.56018 47.9643 7.0127C49.4223 8.46521 50.5829 10.1569 51.3411 12.0236C51.691 12.7819 51.9243 13.5986 52.1575 14.4094C53.2073 14.5844 54.0821 15.2844 54.6012 16.2178C55.1844 17.3844 55.126 18.7786 54.3096 19.8286L49.9997 25.8895C49.3582 26.8229 48.3084 27.3479 47.1478 27.3479L47.0895 27.4645H47.0837Z" fill="#F8F9FA"/>
<path fill-rule="evenodd" clip-rule="evenodd" d="M45.3305 55.1369C44.8056 55.1369 44.2224 55.0202 43.7559 54.7285C42.8811 54.2619 42.2396 53.4452 41.948 52.5177H30.3597C28.7268 52.5177 27.3329 51.4093 26.983 49.8402C26.6331 48.2651 27.3912 46.6376 28.8492 45.9376C28.9659 45.9376 29.0242 45.821 29.1408 45.821H29.2575C30.5988 45.1793 31.7594 44.3626 32.8675 43.3768C32.9841 43.2601 33.1591 43.1434 33.2757 42.9684L33.684 42.5601C33.8589 42.3851 34.0339 42.2101 34.1505 42.0351C34.7921 41.1601 35.8418 40.6934 36.8858 40.6934H42.0121C42.2454 39.7601 42.8869 38.9434 43.82 38.4826C44.3449 38.2492 44.8698 38.0742 45.3947 38.0742C45.9196 38.0742 46.8527 38.3076 47.4359 38.7159L54.5393 43.7851C55.4724 44.4268 55.9973 45.4768 55.9973 46.6376C55.9973 47.7985 55.4724 48.8485 54.5393 49.4901L47.4359 54.5594C46.8527 54.9677 46.0945 55.201 45.3947 55.201L45.3364 55.1427L45.3305 55.1369Z" fill="#F8F9FA"/>
<path fill-rule="evenodd" clip-rule="evenodd" d="M51.383 17.8506L47.0731 23.9115L42.7632 17.8506H45.1485C44.9736 13.3647 41.2469 9.75384 36.7038 9.75384C32.1606 9.75384 29.6004 12.3147 28.6089 15.8147C27.3842 15.4064 26.0487 15.173 24.7656 15.0564C24.9406 14.473 25.1155 13.948 25.3488 13.3647C25.9903 11.9064 26.8652 10.5705 28.0257 9.40383C29.1338 8.29549 30.4693 7.36215 31.9857 6.78464C33.502 6.14297 35.1291 5.79297 36.8204 5.79297C38.5117 5.79297 40.1388 6.14297 41.6552 6.78464C43.1132 7.42632 44.4487 8.30132 45.6151 9.40383C46.7232 10.5122 47.6563 11.848 48.292 13.3647C48.8752 14.7647 49.2251 16.2756 49.2834 17.8506H51.6687H51.3771H51.383Z" fill="#FF7F69"/>
<path fill-rule="evenodd" clip-rule="evenodd" d="M45.3322 51.6401V49.0209H30.3672C30.4838 49.0209 30.6005 48.9043 30.6588 48.8459C32.2918 48.0876 33.8022 47.0376 35.0853 45.8184C35.2603 45.6434 35.4352 45.4684 35.6102 45.3517C35.7851 45.1767 35.9601 45.0017 36.1351 44.7684C36.3683 44.5351 36.5433 44.3017 36.7766 44.0684H45.2797V41.4492L52.3831 46.5184L45.2797 51.5876L45.338 51.646L45.3322 51.6401Z" fill="#7D65F5"/>
<path fill-rule="evenodd" clip-rule="evenodd" d="M3.51229 52.5702C1.58773 52.5702 0.0189126 50.9952 0.0189126 49.076V44.1235C0.0189126 42.1985 1.59356 40.6293 3.51229 40.6293H4.79534L0.660435 34.8601C-0.0977277 33.8101 -0.214368 32.4159 0.368834 31.2492C0.893715 30.1992 1.94348 29.4992 3.10405 29.3825C3.33733 27.8659 3.80389 26.4133 4.38709 25.0133C5.43686 22.5691 6.88903 20.4108 8.69696 18.5499C10.5632 16.6833 12.7152 15.2308 15.1588 14.2391C17.6608 13.1891 20.2852 12.6641 23.0204 12.6641C25.7556 12.6641 24.0118 12.6641 24.595 12.7224C26.228 12.8391 27.7968 13.1891 29.3131 13.6557C29.9547 13.8307 30.4212 14.0641 30.9461 14.2974C33.3314 15.2891 35.4893 16.7416 37.3497 18.6083C39.2101 20.475 40.6681 22.6275 41.6595 25.0717C42.7093 27.5742 43.2342 30.1992 43.2342 32.9351C43.2342 35.6709 42.7093 38.2959 41.6595 40.7985C40.7847 42.951 39.5075 44.876 37.9329 46.5677C37.9329 46.5677 37.3497 47.2094 37.2913 47.2094C37.1747 47.326 36.7665 47.7344 36.7081 47.7927C35.1918 49.1927 33.5647 50.2952 31.6984 51.1702C31.4652 51.2869 31.2319 51.4036 30.9403 51.5202H30.8236C29.1324 52.2202 27.3303 52.6286 25.4057 52.6286H3.51229V52.5702ZM23.9594 40.6293C28.2109 40.6293 31.7626 37.1934 31.8209 32.9409V32.8242C31.8209 27.9884 27.9193 24.0858 23.0845 24.0858C18.2498 24.0858 16.2727 26.355 14.9314 29.5634C15.6895 29.855 16.3894 30.4384 16.7393 31.1967C17.3225 32.3634 17.2642 33.7576 16.4477 34.8076L12.3128 40.5768H23.901L23.9594 40.6351V40.6293Z" fill="#F8F9FA"/>
<path fill-rule="evenodd" clip-rule="evenodd" d="M39.8024 32.8237C39.8024 35.0929 39.3359 37.2512 38.4611 39.3454C37.7029 41.0954 36.6532 42.7229 35.3759 44.1229C35.201 44.2979 35.026 44.4729 34.8511 44.6479L34.3845 45.1146C33.1598 46.2813 31.7076 47.2146 30.1913 47.9671C29.958 48.0838 29.783 48.1421 29.5498 48.2588C28.2667 48.7838 26.9312 49.0755 25.5315 49.0755H3.51562V44.1229H23.9569C30.133 44.1229 35.1952 39.1704 35.3118 32.9987V32.8237C35.3118 26.0686 29.8355 20.5911 23.082 20.5911C16.3286 20.5911 10.8523 26.0686 10.8523 32.8237H13.7042L8.63614 39.9287L3.56811 32.8237H6.41997C6.41997 30.5545 6.88653 28.3961 7.76133 26.302C8.63614 24.3186 9.80254 22.5161 11.3714 20.9994C12.8877 19.4827 14.6898 18.2636 16.6727 17.3886C18.7139 16.5135 20.9242 16.0469 23.1929 16.0469C25.4615 16.0469 24.0677 16.0469 24.5342 16.0469C25.8756 16.1635 27.1528 16.3969 28.3775 16.8052C28.8441 16.9802 29.2523 17.0969 29.7189 17.3302C31.7018 18.2052 33.5039 19.3719 35.0202 20.9411C36.5365 22.4578 37.7554 24.2603 38.6302 26.2436C39.505 28.2853 39.9716 30.4962 39.9716 32.7653L39.7966 32.8237H39.8024Z" fill="#F565CB"/>
</svg>
