<svg width="56" height="57" viewBox="0 0 56 57" fill="none" xmlns="http://www.w3.org/2000/svg">
<g clip-path="url(#clip0_20625_986)">
<path d="M47.7167 0.855469H8.28333C3.70857 0.855469 0 4.56404 0 9.1388V48.5721C0 53.1469 3.70857 56.8555 8.28333 56.8555H47.7167C52.2914 56.8555 56 53.1469 56 48.5721V9.1388C56 4.56404 52.2914 0.855469 47.7167 0.855469Z" fill="#F8F9FA"/>
<path d="M47.7167 4.35547H8.28333C5.64157 4.35547 3.5 6.49704 3.5 9.1388V48.5721C3.5 51.2139 5.64157 53.3555 8.28333 53.3555H47.7167C50.3584 53.3555 52.5 51.2139 52.5 48.5721V9.1388C52.5 6.49704 50.3584 4.35547 47.7167 4.35547Z" fill="#3178C6"/>
<path d="M47.7167 4.35547H8.28333C5.64157 4.35547 3.5 6.49704 3.5 9.1388V48.5721C3.5 51.2139 5.64157 53.3555 8.28333 53.3555H47.7167C50.3584 53.3555 52.5 51.2139 52.5 48.5721V9.1388C52.5 6.49704 50.3584 4.35547 47.7167 4.35547Z" fill="#3178C6"/>
<path fill-rule="evenodd" clip-rule="evenodd" d="M33.8484 43.3174V48.1008C34.6068 48.5091 35.5401 48.8008 36.5901 48.9758C37.6401 49.1508 38.7484 49.2674 39.9734 49.2674C41.1984 49.2674 42.1901 49.1508 43.2401 48.9174C44.2901 48.6841 45.1651 48.3341 45.9818 47.8091C46.7401 47.2841 47.3818 46.6424 47.8484 45.8258C48.3151 45.0091 48.5484 44.0174 48.5484 42.7924C48.5484 41.5674 48.4318 41.1591 48.1401 40.5174C47.8484 39.8758 47.4984 39.2924 47.0318 38.7674C46.5651 38.2424 45.9818 37.7758 45.2818 37.4258C44.5818 37.0758 43.8234 36.6674 42.9484 36.2591C42.3068 36.0258 41.7818 35.7341 41.2568 35.5008C40.7318 35.2674 40.3234 35.0341 39.9734 34.7424C39.6234 34.5091 39.3318 34.2174 39.1568 33.9258C38.9818 33.6341 38.8651 33.3424 38.8651 32.9341C38.8651 32.5258 38.9234 32.2924 39.0984 32.0591C39.2734 31.8258 39.5068 31.5924 39.7984 31.3591C40.0901 31.1841 40.4984 31.0091 40.9651 30.8924C41.4318 30.7758 41.8984 30.7174 42.4818 30.7174C43.0651 30.7174 43.2984 30.7174 43.7651 30.8341C44.2318 30.8924 44.6401 31.0091 45.1068 31.1258C45.5734 31.2424 45.9818 31.4174 46.3901 31.5924C46.7984 31.7674 47.2068 32.0008 47.5568 32.2341V27.7424C46.8568 27.4508 46.0401 27.2758 45.1651 27.1008C44.2901 26.9258 43.2984 26.9258 42.1901 26.9258C41.0818 26.9258 39.9734 27.0424 38.9818 27.2758C37.9901 27.5091 37.0568 27.9174 36.2984 28.4424C35.5401 28.9674 34.8984 29.6091 34.4901 30.4258C34.0234 31.2424 33.7901 32.1758 33.7901 33.2841C33.7901 34.3924 34.1984 35.9091 35.0151 36.9591C35.8318 37.9508 37.1151 38.8258 38.7484 39.5258C39.3901 39.8174 40.0318 40.0508 40.6151 40.3424C41.1984 40.6341 41.6651 40.8674 42.0734 41.1591C42.4818 41.4508 42.8318 41.7424 43.0651 42.0924C43.2984 42.4424 43.4151 42.7924 43.4151 43.2008C43.4151 43.6091 43.3568 43.7841 43.1818 44.0758C43.0068 44.3674 42.8318 44.5424 42.4818 44.7758C42.1318 45.0091 41.7818 45.1258 41.3151 45.2424C40.8484 45.3591 40.3234 45.4174 39.7401 45.4174C38.6901 45.4174 37.6984 45.2424 36.6484 44.8924C35.6568 44.5424 34.6651 43.9591 33.7901 43.2591L33.8484 43.3174ZM25.7984 31.5341H31.9234V27.6258H14.7734V31.5341H20.8984V49.0341H25.7401V31.5341H25.7984Z" fill="#F8F9FA"/>
</g>
<defs>
<clipPath id="clip0_20625_986">
<rect width="56" height="56" fill="white" transform="translate(0 0.855469)"/>
</clipPath>
</defs>
</svg>
