<svg width="43" height="43" viewBox="0 0 43 43" fill="none" xmlns="http://www.w3.org/2000/svg">
<g clip-path="url(#clip0_3398_764)">
<path d="M29.5239 5.52166C25.8821 1.65687 19.5083 0.496903 14.7487 2.82939C13.3779 3.50105 12.116 4.3837 11.1547 5.5881C10.2351 6.73912 9.61277 8.06236 9.23525 9.483C8.49916 12.2525 8.86486 15.2548 9.81824 17.923C10.871 20.8701 12.5532 23.5433 14.182 26.1955C15.9153 29.0165 17.6616 31.8294 19.4033 34.6451C19.8347 35.3437 20.2723 36.0378 20.7099 36.7328C21.2346 37.5666 22.5272 37.8205 23.3188 37.227C23.394 37.1705 23.464 37.1104 23.5291 37.0466C23.7131 37.1082 23.9228 37.0919 24.1121 36.9537C26.371 35.3094 27.986 32.7956 29.3074 30.3664C30.6487 27.9006 31.5806 25.1679 32.2026 22.4344C32.841 19.6269 33.1746 16.6533 32.963 13.7755C32.7363 10.6938 31.655 7.78313 29.5247 5.5224L29.5239 5.52166ZM29.6988 16.6818C29.6936 16.9952 29.6835 17.3083 29.6687 17.6216C29.6644 17.7092 29.6585 17.7961 29.6551 17.8837C29.6479 18.0555 29.6595 17.8449 29.6619 17.7879C29.6563 17.958 29.6379 18.1299 29.6234 18.2991C29.5694 18.9547 29.4945 19.6079 29.4002 20.2583C29.2148 21.5366 28.9519 22.8027 28.6157 24.049C28.447 24.6751 28.2554 25.2939 28.0532 25.9094C28.0279 25.9809 28.0033 26.0523 27.9779 26.1229C27.9265 26.2675 27.8743 26.412 27.8205 26.556C27.7062 26.8643 27.5871 27.1705 27.463 27.4755C26.4866 29.8806 25.34 32.2167 23.9736 34.4256C23.9263 34.5026 23.8814 34.5802 23.8357 34.6579C23.8266 34.6425 23.8175 34.6263 23.8077 34.611C22.1428 31.9686 20.4449 29.3461 18.7571 26.718C17.1543 24.221 15.437 21.7657 14.0473 19.1392C14.0169 19.0821 13.8908 18.8322 13.8911 18.8362C13.838 18.7278 13.7841 18.6195 13.7325 18.5102C13.5789 18.187 13.4361 17.8582 13.3019 17.5264C13.0342 16.8628 12.8007 16.1849 12.6141 15.4932C12.5732 15.3415 12.5346 15.1896 12.4983 15.0368C12.4846 14.9769 12.4708 14.917 12.4571 14.8579C12.3848 14.5442 12.4576 14.9115 12.4743 14.9448C12.3539 14.7081 12.3633 14.2943 12.3321 14.0306C12.2581 13.4175 12.2276 12.7982 12.2451 12.1803C12.2472 12.1185 12.2493 12.0575 12.2513 11.9957C12.2616 11.6747 12.2381 12.0463 12.2439 12.0835C12.2214 11.9554 12.2695 11.787 12.2843 11.6555C12.3189 11.3519 12.3657 11.0499 12.4262 10.7502C12.4861 10.4529 12.5597 10.1579 12.6465 9.86751C12.6569 9.83315 12.6995 9.74608 12.7005 9.70356C12.7491 9.57524 12.7984 9.44766 12.8527 9.32134C12.9633 9.06375 13.0862 8.8109 13.2216 8.56519C13.2896 8.44191 13.3669 8.32439 13.435 8.20191C13.435 8.20191 13.435 8.20191 13.4349 8.20111C13.4786 8.1396 13.5221 8.07729 13.5674 8.01647C13.7413 7.78408 13.9286 7.56117 14.1279 7.35023C14.2305 7.24214 14.3409 7.14153 14.4437 7.03424C14.4861 6.98963 14.4942 6.98026 14.4836 6.98821C14.5277 6.95629 14.5727 6.92592 14.5992 6.90485C14.8313 6.71804 15.0723 6.54342 15.3222 6.3818C15.4475 6.30096 15.5746 6.2224 15.7036 6.14771C15.7773 6.10492 15.8528 6.06521 15.9265 6.02242C15.9342 6.01787 15.9388 6.01515 15.9449 6.01152C16.5102 5.75657 17.0764 5.52718 17.6749 5.35959C17.8199 5.31903 17.965 5.28165 18.1112 5.2474C18.1497 5.2383 18.1788 5.23146 18.2024 5.22581C18.211 5.2244 18.2205 5.22294 18.2308 5.22062C18.5418 5.16764 18.8516 5.12035 19.1657 5.08958C19.6997 5.03862 20.2314 5.03507 20.7663 5.05293C20.8073 5.05647 20.8482 5.06001 20.8892 5.06356C21.042 5.0785 21.1942 5.09588 21.3458 5.11651C21.6305 5.15507 21.9143 5.20489 22.1957 5.2645C22.4583 5.31981 22.7184 5.38411 22.9768 5.45734C23.09 5.48946 23.2027 5.52482 23.3154 5.55939C23.3712 5.58111 23.4315 5.59772 23.4865 5.6187C24.0229 5.81904 24.5444 6.05885 25.0447 6.33699C25.2733 6.46356 25.4933 6.64037 25.7293 6.74879C25.6559 6.71469 25.6096 6.6931 25.5815 6.67984C25.6336 6.70503 25.7356 6.75797 25.7885 6.7959C25.9273 6.89591 26.0631 6.99853 26.1967 7.10451C26.6095 7.43282 26.9878 7.79476 27.3501 8.17785C27.3806 8.21495 27.4119 8.2512 27.4425 8.28831C27.5264 8.39135 27.6079 8.49536 27.6881 8.60188C27.8712 8.84533 28.0422 9.09685 28.201 9.35723C28.275 9.47858 28.3467 9.6017 28.4152 9.72584C28.4382 9.76828 28.4627 9.81061 28.4857 9.85385C28.4896 9.86319 28.4935 9.87412 28.5001 9.88888C28.6336 10.2103 28.7817 10.5227 28.8997 10.8508C29.0096 11.1554 29.1072 11.4649 29.1929 11.7776C29.2422 11.9568 29.2852 12.1372 29.329 12.3183C29.3414 12.3703 29.349 12.5699 29.3419 12.3662C29.3334 12.1186 29.3663 12.4975 29.3757 12.5529C29.6199 13.9196 29.717 15.2967 29.6958 16.6844L29.6988 16.6818Z" fill="#F8F9FA"/>
<path d="M25.5858 6.67902C25.5387 6.65675 25.5503 6.66154 25.5858 6.67902V6.67902Z" fill="#F8F9FA"/>
<path d="M22.0678 9.57518C21.869 9.57707 21.6836 9.64449 21.5252 9.75407C21.4838 9.71052 21.4326 9.67486 21.3716 9.64789C20.6458 9.33187 19.919 9.21932 19.1479 9.44381C18.4184 9.6566 17.7069 10.1172 17.2582 10.7364C16.2544 12.1215 16.2016 14.0288 17.1229 15.4723C17.9895 16.8308 19.7414 17.6564 21.3395 17.4021C23.1351 17.1164 24.6093 15.8217 25.1023 14.0646C25.6745 12.0242 24.3324 9.55377 22.0686 9.57513L22.0678 9.57518ZM22.7228 13.3798C22.7241 13.3749 22.7064 13.4426 22.6973 13.4824C22.6839 13.5202 22.6614 13.5859 22.6627 13.5818C22.6031 13.7237 22.5343 13.859 22.4573 13.9917C22.4573 13.9917 22.4574 13.9925 22.4566 13.9934C22.426 14.0348 22.3945 14.0762 22.3622 14.1161C22.2879 14.2078 22.2077 14.2943 22.1241 14.3778C22.1237 14.373 21.9904 14.4881 21.9539 14.5146C21.8475 14.5918 21.7358 14.6628 21.6213 14.7269C21.5685 14.749 21.5158 14.7719 21.4629 14.7924C21.3532 14.8345 21.2422 14.8687 21.1302 14.9006C21.1856 14.8815 20.9346 14.9359 20.8719 14.9419C20.7593 14.9529 20.6477 14.9567 20.5351 14.9566C20.4891 14.951 20.4424 14.9447 20.3963 14.9375C20.2832 14.919 20.1728 14.893 20.0621 14.8632C20.1155 14.8738 19.8708 14.79 19.8212 14.7663C19.7188 14.7182 19.62 14.6634 19.5224 14.6054C19.4796 14.5747 19.4375 14.5441 19.3961 14.5117C19.3014 14.4374 19.2127 14.3572 19.127 14.2727C19.16 14.2992 18.9969 14.1144 18.9667 14.0716C18.9339 14.0243 18.9033 13.976 18.872 13.9277C18.8729 13.9293 18.8472 13.8814 18.8291 13.8506C18.8148 13.818 18.7911 13.7652 18.792 13.7667C18.7713 13.7105 18.7499 13.656 18.7308 13.5996C18.7117 13.5433 18.695 13.4868 18.6782 13.4295C18.6615 13.3731 18.6545 13.3527 18.6524 13.3465C18.6544 13.3519 18.6608 13.3635 18.6549 13.3127C18.6402 13.1944 18.6288 13.0766 18.6252 12.9568C18.6242 12.908 18.6231 12.8584 18.6245 12.8095C18.6254 12.7998 18.6277 12.7868 18.6297 12.7698C18.6446 12.6519 18.6652 12.5351 18.6922 12.4195C18.7324 12.2509 18.7266 12.2714 18.798 12.1158C18.986 11.7087 19.3079 11.3434 19.7363 11.1076C20.1156 10.8993 20.571 10.7305 21.0129 10.6988C21.007 11.2766 21.3759 11.6857 21.9218 11.8509C21.7488 11.799 22.0011 11.8886 22.053 11.9106C22.1048 11.9326 22.1566 11.9538 22.2071 11.9791C22.222 11.9861 22.2887 12.0255 22.3277 12.0468C22.3496 12.0637 22.3732 12.0812 22.3758 12.0835C22.4168 12.1222 22.4602 12.1592 22.5021 12.1988C22.5029 12.1995 22.5038 12.2002 22.5046 12.201C22.5443 12.2543 22.5809 12.3094 22.6206 12.3626C22.6453 12.397 22.66 12.4127 22.6684 12.4194C22.6701 12.4313 22.6747 12.4518 22.6851 12.4855C22.7069 12.5576 22.734 12.6254 22.7543 12.6985C22.7548 12.7056 22.7561 12.7127 22.7575 12.7215C22.7661 12.7873 22.7698 12.8527 22.7761 12.9188C22.7759 12.9164 22.7779 12.9787 22.7798 13.0186C22.777 13.0572 22.7731 13.1168 22.7731 13.1168C22.7601 13.205 22.7422 13.2911 22.7243 13.378L22.7228 13.3798Z" fill="#F8F9FA"/>
<path d="M38.7129 33.4151C38.4273 32.4373 37.6155 31.7036 36.7501 31.2292C35.8713 30.7469 34.833 30.4863 33.8414 30.3787C32.7179 30.257 31.4445 30.2092 30.4011 30.6969C29.3755 31.1771 29.6315 32.6567 30.8067 32.6594C31.5656 32.6616 32.4144 32.5206 33.1136 32.5694C33.8335 32.6192 34.6554 32.7899 35.2172 33.0221C35.3784 33.0885 35.537 33.1631 35.6906 33.2461C35.7586 33.283 35.826 33.3215 35.892 33.3617C35.8511 33.3374 35.7517 33.2522 35.9372 33.3922C36.0586 33.4838 36.1717 33.5808 36.2835 33.6843C36.4501 33.8392 36.3435 33.753 36.3135 33.7134C36.3724 33.7894 36.4257 33.8666 36.4761 33.9479C36.4462 33.9084 36.5195 34.077 36.5573 34.1729C36.5397 34.1725 36.563 34.4592 36.5778 34.3861C36.5472 34.6677 36.4255 34.9373 36.3118 35.0942C35.9483 35.5953 35.2992 35.9882 34.7865 36.2403C34.0173 36.6176 33.2202 36.9385 32.4105 37.2161C30.8394 37.7536 29.2458 38.1181 27.6409 38.4009C24.1013 39.0248 20.5147 39.3653 16.9232 39.4747C15.3729 39.5222 13.997 39.5272 12.5222 39.2723C11.1631 39.0374 9.75354 38.6299 8.72807 37.7638C8.23227 37.3444 7.76182 36.8191 7.83078 36.1376C7.88553 35.5956 8.31675 35.0457 8.77013 34.6985C9.42445 34.1979 10.196 33.8772 10.985 33.6571C11.9008 33.4017 12.8529 33.412 13.7695 33.1781C14.1203 33.0887 14.1317 32.5433 13.8159 32.4029C12.9281 32.0085 11.93 32.0823 10.9912 32.2616C10.0768 32.4361 9.19436 32.7236 8.37762 33.1747C6.86874 34.0082 5.7069 35.5325 6.13278 37.3278C6.54499 39.0648 8.26032 40.2014 9.80741 40.8396C11.5116 41.5429 13.3737 41.7282 15.1999 41.7767C19.2106 41.8822 23.2712 41.4669 27.2218 40.8031C29.1599 40.4769 31.0978 40.0788 32.9657 39.4556C33.8898 39.1468 34.7956 38.7815 35.6686 38.3465C36.5299 37.9163 37.3956 37.4225 37.9988 36.6475C38.7178 35.7244 39.0494 34.5608 38.7145 33.415L38.7129 33.4151Z" fill="#F8F9FA"/>
</g>
<defs>
<clipPath id="clip0_3398_764">
<rect width="40" height="40" fill="white" transform="translate(0.125 2.99219) rotate(-4)"/>
</clipPath>
</defs>
</svg>
