<svg width="43" height="43" viewBox="0 0 43 43" fill="none" xmlns="http://www.w3.org/2000/svg">
<g clip-path="url(#clip0_3398_774)">
<path d="M41.1784 18.1875C40.8786 17.3934 40.3041 16.7169 39.7998 16.0422C39.3416 15.4299 38.8707 14.8271 38.3888 14.2331C38.3844 14.2272 38.3792 14.2213 38.3748 14.2161C38.4317 14.1001 38.4718 13.974 38.4939 13.8403C38.7086 12.5323 38.9169 11.2255 39.0912 9.91152C39.1744 9.28266 39.2711 8.65475 39.3186 8.02178C39.3423 7.7057 39.366 7.38962 39.3889 7.07348C39.3953 6.98109 39.4061 6.885 39.4168 6.78811C39.5643 6.65996 39.6791 6.49351 39.7403 6.2937C39.9204 5.69883 39.6529 4.92378 38.9973 4.74188C37.6814 4.37774 36.3142 4.07085 34.9521 3.95479C34.2655 3.89638 33.5331 3.82836 32.85 3.92625C32.6107 3.96074 32.2725 4.03553 31.9861 4.17078C31.7334 4.22514 31.4916 4.39791 31.3839 4.63289C31.1035 5.24396 31.106 6.02048 30.9777 6.6774C30.9753 6.68843 30.9729 6.70027 30.9705 6.71131C30.0864 5.97399 29.1776 5.27016 28.2408 4.61159C27.4711 4.07035 26.6791 3.57318 25.8353 3.15321C25.4625 2.96787 25.0647 2.84241 24.6611 2.74296C24.3031 2.6547 23.955 2.66557 23.6018 2.7033C23.2791 2.1557 22.6136 2.00112 22.0408 2.23879C16.5238 4.52938 11.2838 7.43881 6.40581 10.881C5.73228 11.3565 5.08741 11.8685 4.44539 12.3854C4.11461 12.652 3.81511 12.952 3.51259 13.2494C3.19798 13.5595 2.98958 13.9187 2.76243 14.2942C2.56968 14.6129 2.82307 15.1668 3.25114 15.0311C3.57529 14.9281 3.92632 14.8526 4.23339 14.7076C4.56195 14.5529 4.88894 14.3405 5.19987 14.1517C5.27091 14.1087 5.34121 14.0648 5.41156 14.0201C5.36633 14.2434 5.32423 14.4678 5.28914 14.695C5.18625 15.3537 5.08666 16.011 5.00676 16.6729C4.92961 17.307 4.85251 17.9403 4.77535 18.5744C4.691 19.2656 4.67804 20.0691 4.99782 20.7037C5.29929 21.3026 6.09228 21.3165 6.48083 20.8074C6.70991 20.5073 6.75911 20.2386 6.86445 19.8882C6.97419 19.5205 7.04363 19.2028 7.06916 18.8148C7.11151 18.1519 7.15467 17.489 7.19702 16.8261C7.23839 16.1887 7.26127 15.5524 7.28029 14.9143C7.3009 14.2418 7.26761 13.5848 7.25682 12.915C7.25648 12.8741 7.25283 12.8346 7.24828 12.7967C8.4128 12.0298 9.56393 11.2483 10.7552 10.5216C13.2517 8.99784 15.8329 7.61125 18.4823 6.37189C20.0006 5.6617 21.5419 5.00034 23.1015 4.38667C23.2151 4.34179 23.3141 4.27668 23.3989 4.19618C23.5224 4.29605 23.6477 4.39285 23.7838 4.472C24.1007 4.65583 24.4097 4.85031 24.7239 5.03796C25.3884 5.43578 26.0134 5.88286 26.6183 6.36536C27.2005 6.83026 27.7687 7.31178 28.3404 7.78955C28.6255 8.02718 28.9072 8.26778 29.1879 8.51071C29.8142 9.05472 30.5858 9.8554 31.4897 9.80496C32.0224 9.77498 32.4978 9.39765 32.7345 8.91958C33.0729 8.23493 32.8619 7.53347 32.8923 6.81208C32.9038 6.53356 32.9215 6.24587 32.924 5.95792C33.022 5.97518 33.1171 5.98903 33.2059 6.00164C33.7867 6.08468 34.3646 6.1643 34.9427 6.26395C35.8893 6.42699 36.8021 6.62768 37.7277 6.89649C37.6637 7.14813 37.5989 7.39971 37.5349 7.65135C37.3621 8.32517 36.1687 15.7426 36.1938 15.7732C36.1888 15.7993 36.183 15.8253 36.1786 15.853C36.035 16.8658 35.929 17.878 35.8297 18.8963C35.7311 19.9067 35.6295 20.9352 35.6418 21.9509C35.6494 22.5509 36.0389 23.0928 36.6729 23.1371C37.3069 23.1815 37.7765 22.7029 37.8591 22.106C37.9975 21.1 38.0241 20.067 38.0519 19.0517C38.0599 18.7649 38.0663 18.4789 38.0727 18.1928C38.477 18.7405 38.8817 19.2706 39.4042 19.7313C39.8022 20.0817 40.517 19.9668 40.8877 19.6446C41.3223 19.2668 41.3732 18.6989 41.18 18.1876L41.1784 18.1875Z" fill="#F8F9FA"/>
<path d="M21.4457 33.9046C21.4543 33.782 21.4312 33.6659 21.3772 33.5565C21.334 33.3846 21.251 33.2331 21.1273 33.1012C21.0407 33.0239 20.954 32.9474 20.8682 32.8702C20.8682 32.8702 20.8682 32.8702 20.8674 32.8701C20.8674 32.8701 20.8666 32.8701 20.8658 32.87C20.7716 32.8082 20.672 32.7572 20.5651 32.7177C20.5627 32.7168 20.5597 32.715 20.5573 32.714C20.4991 32.6883 20.5771 32.7178 20.3767 32.6758C20.1996 32.6226 20.019 32.6179 19.8351 32.6619C19.7244 32.6998 19.6129 32.7376 19.5022 32.7755C19.4056 32.84 19.3091 32.9036 19.2134 32.9682C19.1361 33.0548 19.0596 33.1415 18.9824 33.2273L18.8236 33.5412C18.7544 33.7172 18.7339 33.8967 18.7619 34.0795C18.7533 34.2022 18.7764 34.3182 18.8304 34.4276C18.8542 34.5446 18.9054 34.6482 18.9839 34.7385C19.0373 34.8447 19.1121 34.9316 19.2099 34.9984C19.3321 35.127 19.4802 35.219 19.6541 35.2728C19.7732 35.2971 19.8915 35.3222 20.0107 35.3466C20.1321 35.339 20.2527 35.3307 20.3741 35.3231C20.4848 35.2853 20.5963 35.2474 20.707 35.2096C20.8035 35.1451 20.9 35.0814 20.9958 35.0169C21.1366 34.9035 21.2399 34.7642 21.3066 34.6008C21.3753 34.4992 21.4143 34.3874 21.4229 34.2656C21.4639 34.1476 21.4723 34.0281 21.448 33.9056L21.4457 33.9046Z" fill="#F8F9FA"/>
<path d="M31.4745 25.9541C31.4396 25.926 31.435 25.9241 31.5576 26.0247C31.5576 26.0247 31.5561 26.0238 31.5561 26.023C31.5289 26.0003 31.5017 25.9776 31.4745 25.9541Z" fill="#F8F9FA"/>
<path d="M36.9384 29.8062C36.5587 28.0477 35.7878 26.3915 34.6243 25.0143C33.5961 23.7979 32.2971 22.8139 30.9158 22.033C29.7548 21.3764 28.5424 20.8258 27.3109 20.3179C28.0496 18.6704 28.54 16.9447 28.2839 15.0908C27.9818 12.8983 26.4712 11.0039 24.2895 10.4648C22.1566 9.93786 19.6538 10.2711 17.7007 11.2702C15.7335 12.2763 14.1411 14.2291 14.0335 16.5002C13.9591 18.0685 14.5602 19.4647 15.401 20.7288C12.8429 20.8789 10.3053 21.5506 8.29729 23.1974C5.49629 25.4946 4.3616 29.2114 4.3185 32.7235C4.30433 33.899 4.42635 35.0841 4.5835 36.2476C4.74288 37.4248 4.97542 38.5632 5.43088 39.6611C5.68162 40.2645 6.58537 40.022 6.63601 39.4236C6.79495 37.5283 6.38471 35.6236 6.38249 33.721C6.37968 32.0329 6.50704 30.4291 7.02554 28.8742C7.48634 27.4922 8.19127 26.2129 9.25778 25.2566C10.3132 24.31 11.5848 23.7514 12.9415 23.4525C13.3666 23.359 13.7974 23.2883 14.2299 23.2369C14.4382 23.2122 14.646 23.1931 14.8544 23.1765C14.8649 23.1756 14.9011 23.1734 14.9316 23.1723C15.0488 23.1669 15.166 23.1615 15.2831 23.1577C16.1605 23.1318 17.0379 23.1747 17.9115 23.2606C19.0386 23.3722 19.6168 21.9937 18.9514 21.174C18.6832 20.8431 18.4167 20.5107 18.1621 20.1688C18.0465 20.0134 17.9326 19.8566 17.8221 19.6976C17.8061 19.6741 17.7497 19.5885 17.7258 19.5524C17.6674 19.4603 17.609 19.3682 17.5532 19.2746C17.3597 18.9506 17.1831 18.6157 17.0361 18.2676C16.9942 18.1687 16.954 18.0682 16.9171 17.9664C16.9128 17.9485 16.9071 17.9265 16.8994 17.8987C16.8434 17.6819 16.7904 17.4661 16.7555 17.2444C16.7437 17.1723 16.7352 17.0997 16.7274 17.0279C16.7256 16.9966 16.7229 16.9556 16.7243 16.9357C16.7348 16.7275 16.7419 16.5231 16.7684 16.3161C16.7691 16.3057 16.7705 16.2978 16.7719 16.2891C16.8014 16.1767 16.8324 16.0652 16.8697 15.9542C16.896 15.8768 16.9246 15.7995 16.9555 15.7233C16.9758 15.6735 17.0548 15.5053 17.0471 15.5128C17.1324 15.3571 17.2285 15.2069 17.3307 15.062C17.3787 14.9941 17.4282 14.9272 17.4792 14.8619C17.4915 14.846 17.6468 14.6735 17.642 14.6732C17.7351 14.5781 17.8305 14.4847 17.9311 14.3965C18.0249 14.3142 18.1209 14.2345 18.2199 14.1582C18.2478 14.1369 18.4051 14.0278 18.417 14.0167C18.7284 13.8224 19.0578 13.6549 19.3958 13.5145C19.5062 13.4686 19.6182 13.4244 19.7306 13.3842C19.7502 13.3784 19.7731 13.372 19.8025 13.3636C20.0361 13.2959 20.2694 13.2338 20.5075 13.1824C20.9187 13.0935 21.3324 13.0368 21.7508 12.994C21.7774 12.9911 21.7975 12.9893 21.8161 12.9874C21.9342 12.9813 22.052 12.9783 22.1698 12.9769C22.39 12.9755 22.6104 12.9821 22.8292 13.0006C23.013 13.0159 23.1997 13.0361 23.3823 13.0689C23.4137 13.0767 23.4751 13.0922 23.497 13.0993C23.6198 13.1399 23.7449 13.1711 23.8667 13.2148C23.9354 13.2396 24.2329 13.3797 24.191 13.3504C24.2833 13.4032 24.3746 13.4592 24.4616 13.5206C24.502 13.549 24.6762 13.6908 24.6555 13.6654C24.753 13.7602 24.8435 13.8618 24.9298 13.9671C24.9755 14.0231 25.0171 14.0804 25.0595 14.1386C25.0731 14.1604 25.0875 14.1838 25.0945 14.1979C25.1815 14.3728 25.2713 14.5432 25.3508 14.7216C25.3619 14.7464 25.371 14.7655 25.3779 14.7812C25.4119 14.89 25.4426 15.0002 25.4693 15.1109C25.52 15.3241 25.5531 15.5377 25.5827 15.7543C25.5855 15.7721 25.5877 15.7867 25.5891 15.8004C25.5929 15.9183 25.5942 16.0368 25.5915 16.1551C25.5855 16.3908 25.5642 16.6262 25.531 16.86C25.5201 16.936 25.5068 17.0119 25.4935 17.0879C25.4894 17.09 25.4223 17.3846 25.4116 17.4239C25.2703 17.9446 25.0797 18.4499 24.862 18.9429C24.7593 19.1751 24.6512 19.4044 24.5377 19.631C24.5202 19.6642 24.4832 19.736 24.4776 19.7468C24.3846 19.9204 24.2932 20.0941 24.1987 20.2668C23.7505 21.091 23.9869 22.0367 24.8992 22.4055C25.5872 22.6833 26.2735 22.965 26.9521 23.2637C27.275 23.4064 27.5954 23.552 27.9145 23.704C28.071 23.7782 28.2257 23.8546 28.3812 23.9319C28.3912 23.9374 28.402 23.943 28.4152 23.9495C28.5063 23.9975 28.5974 24.0455 28.6884 24.0942C29.317 24.4327 29.9307 24.8014 30.5141 25.2144C30.81 25.4231 31.0997 25.6411 31.3781 25.8726C31.4091 25.8988 31.44 25.925 31.471 25.9512C31.4953 25.9705 31.5331 26.0019 31.5511 26.0192C31.5511 26.0192 31.5511 26.0192 31.5518 26.02C31.5549 26.0227 31.5579 26.0253 31.5609 26.0279C31.5579 26.0253 31.5563 26.0244 31.5533 26.0217C31.6983 26.1575 31.8408 26.294 31.9789 26.4365C32.2156 26.6803 32.4394 26.9361 32.6488 27.2036C32.7561 27.3408 32.8567 27.4807 32.9581 27.6222C32.961 27.6264 32.9624 27.6297 32.9652 27.6347C33.0335 27.746 33.1025 27.8572 33.1674 27.9714C33.3457 28.2832 33.5039 28.6064 33.6432 28.9379C33.6783 29.0204 33.7117 29.1036 33.7442 29.1875C33.7394 29.1759 33.7991 29.341 33.8254 29.4109C33.8405 29.4591 33.8589 29.5156 33.8635 29.5312C33.9024 29.6603 33.939 29.7902 33.9739 29.9207C34.0712 30.2916 34.1489 30.6676 34.2081 31.0463C34.2364 31.2252 34.2607 31.4046 34.2801 31.5844C34.2906 31.6748 34.2995 31.765 34.3076 31.8552C34.3126 31.9092 34.3217 32.0771 34.3246 32.1037C34.355 32.9166 34.3247 33.7277 34.2353 34.537C34.1799 35.0429 34.1031 35.5466 34.012 36.0476C33.9938 36.148 33.974 36.2482 33.9558 36.3478L33.9261 36.4978C33.9695 36.2896 33.9489 36.3898 33.8644 36.7976C33.8172 37.0368 33.7748 37.2772 33.7253 37.5162C33.7194 37.5422 33.7123 37.5761 33.7018 37.6226C33.6746 37.748 33.6475 37.8733 33.6196 37.9978C33.5637 38.2477 33.5053 38.4981 33.4463 38.7469C33.3225 39.2704 33.1924 39.792 33.0622 40.3143C32.8952 40.9861 33.1424 41.7878 33.8737 42.0094C34.5438 42.2123 35.3455 41.9066 35.5687 41.1979C36.729 37.5158 37.7721 33.6782 36.9361 29.8044L36.9384 29.8062Z" fill="#F8F9FA"/>
<path d="M27.9657 29.8646C27.9563 29.8616 27.9469 29.8585 27.9375 29.8555C27.9461 29.8585 27.9555 29.8615 27.9657 29.8646Z" fill="#F8F9FA"/>
<path d="M28.0006 29.889C28.0006 29.889 27.9953 29.8846 27.9922 29.8828C27.9922 29.8828 27.9922 29.8828 27.9921 29.8844C27.9951 29.887 27.9974 29.888 28.0004 29.8906C28.0004 29.8906 28.0004 29.8906 28.0005 29.8898L28.0006 29.889Z" fill="#F8F9FA"/>
<path d="M30.5717 29.3253C30.1802 27.794 28.8428 27.1987 27.3843 27.0879C24.6488 26.8806 21.8576 26.9319 19.1323 27.2416C17.7947 27.3938 16.4634 27.604 15.1441 27.8727C13.8613 28.1336 12.2407 28.4868 11.8717 29.9401C11.6962 30.6297 11.7062 31.3459 11.6816 32.0525C11.6531 32.8373 11.6327 33.6218 11.6195 34.406C11.6062 35.1678 11.6197 35.9251 11.6529 36.6862C11.6709 37.0932 11.6379 37.5535 11.7164 37.9528C11.7582 38.1678 11.8254 38.3854 11.8984 38.601C11.7429 38.6157 11.5881 38.6313 11.4344 38.6438C10.7187 38.7034 10.6222 39.9348 11.3337 40.0838C11.9687 40.217 12.6068 40.3849 13.2486 40.4778C13.8738 40.5679 14.5075 40.6154 15.1351 40.6833C16.4194 40.8235 17.7055 40.9167 18.9937 41.0132C21.5415 41.2033 24.0904 41.3792 26.64 41.5551C27.2891 41.6004 27.951 41.0737 27.9685 40.4002C27.9787 39.9911 27.8029 39.5979 27.5043 39.3465C27.5119 39.307 27.5195 39.2675 27.5278 39.2289C27.5302 39.2178 27.5326 39.2052 27.5361 39.1894C27.5719 39.0215 27.61 38.8537 27.6489 38.6867C27.7997 38.0418 27.9733 37.4016 28.168 36.7693C28.5517 35.5276 29.0194 34.311 29.5692 33.1329C29.6313 32.9996 29.6943 32.8663 29.7587 32.7339C29.7755 32.6999 29.8809 32.4856 29.8774 32.4901C30.0495 32.1468 30.2356 31.8085 30.3743 31.45C30.6275 30.7946 30.7499 30.0164 30.5726 29.3245L30.5717 29.3253ZM19.156 38.6699C17.8917 38.6079 16.6294 38.542 15.3637 38.5232C14.7313 38.5141 14.0973 38.493 13.4649 38.4952C13.4184 38.4952 13.3727 38.4968 13.3262 38.4975C13.4419 38.079 13.5207 37.662 13.5521 37.2127C13.5959 36.5875 13.6587 35.9628 13.6873 35.3374C13.7437 34.084 13.8113 32.8313 13.9004 31.5794C13.9192 31.311 13.9451 31.0439 13.9678 30.7766C13.9991 30.4082 13.9624 30.9907 13.9971 30.6321C13.9991 30.6035 14.0005 30.5828 14.0016 30.5676C14.0093 30.561 14.0207 30.5466 14.0351 30.5236C14.0627 30.5183 14.0937 30.5205 14.1455 30.5129C14.4907 30.4634 14.8387 30.4309 15.1839 30.3822C16.394 30.2107 17.5916 29.9895 18.8091 29.8617C21.1327 29.6184 23.3616 29.5286 25.7706 29.6322C26.3467 29.6573 26.9296 29.6765 27.5034 29.7454C27.5312 29.7489 27.7355 29.7912 27.743 29.7878C27.8096 29.8084 27.8744 29.8314 27.9409 29.8536C27.7986 29.8045 27.9177 29.8184 27.969 29.8628C27.9714 29.863 27.973 29.8639 27.9753 29.8648C27.9753 29.8648 27.9714 29.8638 27.969 29.8628C27.9736 29.8663 27.9773 29.8706 27.981 29.8748C27.9853 29.8823 27.9881 29.8881 27.993 29.8973C27.9934 29.8925 27.9936 29.8893 27.9931 29.8853C27.9923 29.8852 27.9915 29.8844 27.9908 29.8835C27.9908 29.8835 27.9901 29.8819 27.9893 29.8818C27.9909 29.8819 27.9916 29.8836 27.9923 29.8844C27.9887 29.7305 27.9941 29.8013 28.0007 29.8906C28.0965 29.9621 28.0973 29.9622 28.0006 29.8914C28.0049 29.9453 28.0095 30.0049 28.013 30.0243C27.9608 29.7406 27.9998 30.0866 27.9987 30.1482C27.998 30.181 27.9988 30.2042 28 30.2211C27.9907 30.2397 27.9791 30.2677 27.9644 30.3067C27.9144 30.4376 27.8732 30.57 27.8177 30.6998C27.7698 30.8117 27.7174 30.9209 27.6641 31.03C27.6521 31.0524 27.6084 31.1405 27.6029 31.1506C27.4157 31.5144 27.2325 31.8802 27.0577 32.2505C26.4922 33.4483 26.011 34.6865 25.6177 35.9507C25.3142 36.9259 25.0172 37.9448 24.8329 38.9668C22.9409 38.8641 21.0486 38.7638 19.1559 38.6707L19.156 38.6699Z" fill="#F8F9FA"/>
</g>
<defs>
<clipPath id="clip0_3398_774">
<rect width="40" height="40" fill="white" transform="translate(3.02344 -0.0078125) rotate(4)"/>
</clipPath>
</defs>
</svg>
